<svg width="154" height="113" viewBox="0 0 154 113" fill="none" xmlns="http://www.w3.org/2000/svg">
<path d="M86.6335 37.0095C87.3344 42.8741 82.3708 49.7767 78.0702 49.7767C73.8644 49.7767 70.6436 41.7496 69.5069 37.0095C66.4378 24.1212 73.5044 10.4543 76.6114 10.7657C77.4261 10.8522 77.9376 12.1324 78.9796 14.7101C81.4235 20.8169 80.3815 23.4465 82.0298 28.2904C83.8864 33.7571 86.1788 33.2727 86.6335 37.0095Z" fill="#22130C"/>
<path d="M100.388 62.5261C76.2136 62.3877 52.0394 62.2666 27.8842 62.1282C28.0736 57.4746 29.1156 51.7311 33.4162 49.4129C38.6072 46.6103 44.4613 50.9872 49.7849 48.3576C52.6267 46.939 55.6769 43.358 56.1316 33.6182C56.5105 33.6182 56.8705 33.5663 57.2304 33.549C59.447 33.4106 61.6447 33.2722 63.8613 33.1338C66.0589 33.2722 68.2755 33.4106 70.4732 33.549C70.8521 33.5836 71.1931 33.6009 71.572 33.6182C71.932 40.071 73.3908 46.5411 77.9187 48.3576C82.8634 50.3471 87.865 45.2955 93.037 47.1812C96.2388 48.3576 99.3648 52.129 100.407 62.5261H100.388Z" fill="#EA9950"/>
<path d="M70.3215 38.6871C70.3215 42.6661 67.4229 45.9012 63.8233 45.9012C60.2237 45.9012 57.3251 42.6661 57.3251 38.6871C57.3251 34.7082 60.2237 31.4731 63.8233 31.4731C67.4229 31.4731 70.3215 34.7082 70.3215 38.6871Z" fill="#22130C"/>
<path d="M64.3728 6.18159C62.9519 6.18159 61.7395 6.2335 60.5648 6.35459C54.1803 7.04659 49.3682 11.977 49.3682 17.8416V29.7439C49.7092 31.249 51.0354 36.3178 56.1885 39.9335C59.1629 42.0267 62.2131 42.7706 63.956 43.082C64.0697 43.082 64.1834 43.082 64.2971 43.082C64.4107 43.082 64.5244 43.082 64.6381 43.082C66.4 42.7879 69.4312 42.044 72.4057 39.9335C77.5588 36.3178 78.885 31.249 79.226 29.7439V17.8416C79.226 11.977 74.4139 7.04659 68.0293 6.35459C66.8736 6.2335 65.6422 6.16429 64.3539 6.18159H64.3728Z" fill="#EA9950"/>
<path d="M52.0963 23.7053C52.0963 26.11 50.5238 28.0475 48.5914 28.0475C46.659 28.0475 45.0865 26.11 45.0865 23.7053C45.0865 21.3006 46.659 19.363 48.5914 19.363C50.5238 19.363 52.0963 21.3006 52.0963 23.7053Z" fill="#EA9950"/>
<path d="M83.6024 23.7055C83.6024 26.1102 82.03 28.0478 80.0975 28.0478C78.1651 28.0478 76.5927 26.1102 76.5927 23.7055C76.5927 21.3009 78.1651 19.3633 80.0975 19.3633C82.03 19.3633 83.6024 21.3009 83.6024 23.7055Z" fill="#EA9950"/>
<path d="M62.8192 33.7574C63.3307 33.4979 63.8423 33.4287 64.3348 33.4287C64.8464 33.4287 65.3579 33.4979 65.8504 33.7574C65.3389 34.0169 64.8274 34.0861 64.3348 34.0861C63.8233 34.0861 63.3118 34.0169 62.8192 33.7574Z" fill="#22130C"/>
<path d="M60.9058 51.8349C61.5688 52.5961 62.6487 52.9767 63.6907 52.7691C65.1495 52.4923 65.7179 51.264 65.7558 51.1775L60.9058 51.8349Z" fill="#22130C"/>
<path d="M66.059 54.1533C66.4189 54.309 66.9684 54.5166 67.6504 54.7242C69.9617 55.3816 71.9131 55.2432 73.2582 55.1394C78.165 54.7588 82.693 54.136 84.2275 53.9111C80.7037 54.0149 77.1799 54.136 73.675 54.2398L66.059 54.1533Z" fill="#22130C"/>
<path d="M61.5878 54.1533C61.2279 54.309 60.6785 54.5166 59.9965 54.7242C57.6851 55.3816 55.7338 55.2432 54.3887 55.1394C49.4818 54.7588 44.9539 54.136 43.4193 53.9111C46.9431 54.0149 50.467 54.136 53.9719 54.2398L61.5878 54.1533Z" fill="#22130C"/>
<path d="M64.4107 40.2099C64.4107 40.2099 64.2781 40.2099 64.2212 40.2099C63.3498 40.1926 62.4972 40.0023 61.7015 39.6736C61.5879 39.6217 61.531 39.5006 61.5878 39.3795C61.6447 39.2757 61.7773 39.2238 61.9099 39.2757C62.6488 39.5871 63.4445 39.7601 64.2591 39.7774C65.1496 39.812 66.0211 39.639 66.8357 39.3276C66.9683 39.2757 67.1009 39.3276 67.1388 39.4487C67.1767 39.5698 67.1388 39.6909 67.0062 39.7255C66.1916 40.0369 65.3011 40.2099 64.4296 40.2099H64.4107Z" fill="#22130C"/>
<path d="M64.0696 37.7188C61.493 37.7188 59.5606 36.7673 58.5944 36.1791C58.4807 36.1099 58.4618 35.9715 58.5375 35.885C58.6133 35.7812 58.7649 35.7639 58.8596 35.8331C59.8448 36.4386 61.8909 37.4247 64.6001 37.2863C66.7598 37.1652 68.4081 36.3867 69.3932 35.7466C69.5069 35.6774 69.6395 35.6947 69.7153 35.7985C69.7911 35.9023 69.7721 36.0234 69.6584 36.0926C68.6165 36.7673 66.8924 37.5804 64.619 37.7015C64.4295 37.7015 64.259 37.7015 64.0696 37.7015V37.7188Z" fill="#22130C"/>
<path d="M52.4374 27.8416C53.2141 28.4298 54.8245 29.4678 57.079 29.6754C57.8937 29.7446 60.1103 29.9348 60.7165 28.9315C61.3228 27.9281 60.0913 26.0597 58.5567 25.385C56.8138 24.6238 54.1235 25.5234 52.4185 27.8416H52.4374Z" fill="#D86C12"/>
<path d="M57.382 29.8833C54.7297 29.8833 52.6647 28.6031 51.85 27.9976C51.7553 27.9284 51.7364 27.79 51.8121 27.6862C51.8879 27.5997 52.0395 27.5824 52.1532 27.6516C53.0246 28.2917 55.3549 29.7449 58.2914 29.3816C59.0682 29.2951 59.8449 29.0702 60.5838 28.7415C60.6975 28.6896 60.849 28.7415 60.9059 28.8453C60.9627 28.9491 60.9059 29.0875 60.7922 29.1394C60.0154 29.4854 59.1819 29.7276 58.3483 29.8141C58.0262 29.8487 57.7041 29.866 57.382 29.866V29.8833Z" fill="#22130C"/>
<path d="M77.6157 23.5502C76.2895 23.3599 74.4329 23.2042 72.2542 23.3772C70.3786 23.5329 68.8251 23.8962 67.6694 24.2421C67.6694 24.0173 67.6694 23.7578 67.7263 23.4637C67.8589 22.7544 68.2188 22.2181 68.4841 21.8894C69.9807 21.7856 71.2122 21.751 72.1405 21.751C74.3571 21.751 74.9823 21.924 75.3802 22.0624C76.5169 22.443 77.2368 23.1004 77.6347 23.5502H77.6157Z" fill="#22130C"/>
<path d="M67.6316 21.9238C67.5179 22.1487 67.3663 22.4601 67.2716 22.8753C67.1011 23.5846 67.1769 24.2766 67.2527 24.2766C67.3474 24.2766 67.5368 23.4462 67.5747 23.1867C67.6505 22.8234 67.7074 22.4947 67.9158 22.0622C67.9726 21.9584 68.0105 21.8719 68.0484 21.8027L67.6316 21.9065V21.9238Z" fill="#22130C"/>
<path d="M51.8689 23.5848C53.1951 23.3945 55.0518 23.2388 57.2305 23.4118C59.106 23.5675 60.6596 23.9308 61.8152 24.2768C61.8152 24.0519 61.8152 23.7924 61.7584 23.4983C61.6258 22.789 61.2658 22.2527 61.0006 21.924C59.5039 21.8202 58.2725 21.7856 57.3441 21.7856C55.1275 21.7856 54.5023 21.9586 54.1045 22.097C52.9678 22.4776 52.2478 23.135 51.85 23.5848H51.8689Z" fill="#22130C"/>
<path d="M61.8342 21.941C61.9478 22.1658 62.0994 22.4773 62.1941 22.8924C62.3646 23.6017 62.2888 24.2937 62.2131 24.2937C62.1183 24.2937 61.9289 23.4633 61.891 23.2038C61.8152 22.8405 61.7584 22.5118 61.55 22.0794C61.4932 21.9756 61.4552 21.8891 61.4174 21.8372L61.8342 21.941Z" fill="#22130C"/>
<path d="M68.3135 36.5936C68.2756 37.078 65.9643 37.3202 64.4297 37.3202C62.7057 37.3202 60.2617 37.0088 60.2428 36.5244C60.2239 36.0574 62.3836 35.4 64.4297 35.4519C66.3242 35.4865 68.3514 36.1439 68.3135 36.5936Z" fill="#D86C12"/>
<path d="M79.5671 12.2706C80.0975 15.177 80.1544 17.6335 80.0975 19.3635C79.605 22.6332 78.885 23.4982 78.2598 23.5847C76.2137 23.8614 74.9634 15.9727 70.6438 15.3154C67.7831 14.8829 67.0442 18.066 62.4595 19.1559C56.3212 20.5918 50.4671 16.336 49.3683 17.8584C48.8567 18.5677 49.9745 19.7441 49.5956 20.0036C48.8757 20.5226 42.9269 17.2529 42.5101 13.1875C41.847 6.64816 55.7339 1.80422 56.4159 1.57932C60.7165 0.126143 64.1645 0.0742406 65.8507 0.14344C68.9198 0.281838 72.8604 0.437535 75.778 2.9806C78.222 5.12578 78.7524 7.91104 79.5671 12.3052V12.2706Z" fill="#22130C"/>
<path d="M48.5914 86.3655C54.8275 86.3655 59.8829 81.7492 59.8829 76.0548C59.8829 70.3604 54.8275 65.7441 48.5914 65.7441C42.3554 65.7441 37.3 70.3604 37.3 76.0548C37.3 81.7492 42.3554 86.3655 48.5914 86.3655Z" fill="#EA9950"/>
<path d="M77.6155 86.3655C83.8516 86.3655 88.9069 81.7492 88.9069 76.0548C88.9069 70.3604 83.8516 65.7441 77.6155 65.7441C71.3794 65.7441 66.3241 70.3604 66.3241 76.0548C66.3241 81.7492 71.3794 86.3655 77.6155 86.3655Z" fill="#EA9950"/>
<path d="M76.043 27.8401C75.2663 28.4283 73.6559 29.4663 71.4014 29.6739C70.5868 29.7431 68.3702 29.9334 67.7639 28.93C67.1577 27.9266 68.3891 26.0582 69.9237 25.3835C71.6666 24.6224 74.3569 25.5219 76.0619 27.8401H76.043Z" fill="#D86C12"/>
<path d="M71.1174 29.8816C70.8142 29.8816 70.4922 29.8643 70.1701 29.8297C69.3365 29.7259 68.5219 29.501 67.7262 29.155C67.6125 29.1031 67.5557 28.9647 67.6125 28.8609C67.6693 28.7571 67.802 28.7052 67.9346 28.7571C68.6734 29.0858 69.4313 29.3107 70.227 29.3972C73.1445 29.7432 75.4937 28.3073 76.3652 27.6672C76.46 27.598 76.6115 27.6153 76.7063 27.7018C76.782 27.7883 76.7631 27.9267 76.6684 28.0132C75.8348 28.6187 73.7697 29.8989 71.1174 29.8989V29.8816Z" fill="#22130C"/>
<path d="M88.7366 104.928H38.8157C39.0241 98.0947 39.2325 91.244 39.4409 84.4105C38.4558 82.5768 37.4517 80.2586 36.8265 77.4733C35.3109 70.8302 36.7317 65.2424 37.7927 62.1976C42.8511 56.9904 47.8905 51.7832 52.9489 46.5759C53.6878 51.5583 57.9884 55.4161 63.1794 55.9178C68.9577 56.4714 74.5655 52.7173 75.778 47.1641C79.3776 52.0427 82.9962 56.9039 86.5958 61.7824C88.5093 66.2804 91.0858 74.4632 88.1682 83.4072C87.6946 84.843 87.1263 86.1751 86.5011 87.4034C87.2399 93.2507 87.9788 99.0808 88.7366 104.928Z" fill="#410FA3"/>
<path d="M118.14 92.2127C115.374 94.6693 112.627 97.1259 109.861 99.5825C106.735 94.7212 103.609 89.8254 100.483 84.9468C99.6491 83.6321 98.7966 82.2827 97.9251 80.9679C94.7802 76.0547 91.6353 71.1416 88.4904 66.2285C88.5282 65.5365 88.7935 63.1491 90.9153 61.2634C93.113 59.3259 96.3905 58.6858 99.4975 59.5508C101.771 62.3879 104.044 65.4846 106.28 68.8926C107.89 71.3492 109.349 73.7712 110.675 76.1585C113.877 81.8675 116.302 87.2823 118.159 92.2301L118.14 92.2127Z" fill="#EA9950"/>
<path d="M110.656 76.1584C107.265 79.0821 103.855 82.0058 100.483 84.9467C99.6491 83.632 98.7965 82.2826 97.925 80.9678C102.169 79.3589 106.413 77.7846 110.656 76.1584Z" fill="#22130C"/>
<path d="M112.835 74.9477C107.549 77.8887 102.244 80.8296 96.9588 83.7533C92.8666 77.2486 88.7934 70.7439 84.7012 64.2392C81.8025 58.5475 78.885 52.8559 75.9863 47.1643C77.3314 47.0259 79.2828 46.8529 81.651 46.6972C88.1492 46.2647 91.3888 46.0398 92.9234 46.455C96.6746 47.4757 98.8343 51.0567 103.173 58.2188C105.484 62.0248 105.958 63.6683 109.557 69.7059C110.902 71.9376 112.058 73.754 112.835 74.9477Z" fill="#410FA3"/>
<path d="M12.8037 92.0394C15.7402 94.323 18.6578 96.6066 21.5943 98.8901C24.3793 93.8386 27.1453 88.7871 29.9113 83.7355C30.6502 82.3688 31.408 80.9849 32.1658 79.6182C34.9508 74.532 37.7547 69.4286 40.5396 64.3598C40.4449 63.6851 40.0281 61.2977 37.7736 59.5504C35.4434 57.7513 32.1279 57.3015 29.0967 58.3568C27.0316 61.315 24.9856 64.5501 22.9963 68.0792C21.5754 70.6396 20.2871 73.1308 19.1315 75.5873C16.3465 81.4693 14.3004 87.0225 12.8037 92.0567V92.0394Z" fill="#EA9950"/>
<path d="M19.1314 75.5706C22.7121 78.2866 26.3306 81.0027 29.9112 83.7361C30.6501 82.3694 31.4079 80.9854 32.1657 79.6187C27.8083 78.2693 23.4698 76.9372 19.1124 75.5706H19.1314Z" fill="#22130C"/>
<path d="M16.877 74.4981C22.3711 77.1104 27.8652 79.7399 33.3594 82.3522C36.9779 75.6226 40.5775 68.893 44.1961 62.1461C47.6441 58.1671 51.0922 54.1709 54.5592 50.1919C53.1004 49.1539 46.3179 44.5868 38.5883 46.2649C30.9344 47.9256 26.8422 54.7244 25.3455 57.2156C23.5646 60.1739 23.5267 61.6963 19.7945 69.066C18.6199 71.3841 17.5969 73.2525 16.8959 74.4981H16.877Z" fill="#410FA3"/>
<path d="M54.4642 49.0849C53.2139 49.9671 52.0772 49.6557 47.8145 49.5692C40.71 49.4135 39.99 50.2266 38.9291 49.3789C36.6936 47.6144 38.9291 43.324 40.9941 34.1724C43.2297 24.2597 41.752 24.104 43.6086 19.0697C47.1135 9.57216 55.1463 2.53115 56.8892 3.43073C59.7689 4.88392 46.1094 28.0829 53.2139 36.4733C53.7443 37.0961 55.9041 39.4489 56.3209 42.8569C56.3967 43.5316 56.8514 47.3722 54.4453 49.0849H54.4642Z" fill="#22130C"/>
<path d="M59.4849 104.184C59.6365 102.852 59.7881 101.52 59.9207 100.188C48.8377 96.9529 36.2012 94.2369 22.1248 92.7837C18.942 92.455 15.835 92.2128 12.7848 92.0398C12.1596 92.6972 10.3977 94.7039 10.0756 97.7833C9.77251 100.707 10.966 102.887 11.4397 103.665C14.774 104.859 17.5401 105.361 19.302 105.603C32.2037 107.402 39.1756 101.849 53.3277 103.215C56.0558 103.475 58.2156 103.925 59.466 104.202L59.4849 104.184Z" fill="#EA9950"/>
<path d="M73.0877 105.274L50.8838 104.928C58.1398 103.717 65.3959 102.506 72.6519 101.278C84.7769 99.4787 97.3945 97.0568 110.448 93.8736C113.024 93.2508 115.544 92.6107 118.045 91.936C118.632 92.3339 121.985 94.6694 122.478 98.856C122.819 101.728 121.607 103.925 121.114 104.738C117.59 105.326 114.767 105.655 113.043 105.845C101.089 107.108 91.2183 106.502 79.567 105.741C76.6873 105.551 74.376 105.378 73.1066 105.257L73.0877 105.274Z" fill="#EA9950"/>
<path d="M63.4255 105.689C63.2739 105.689 63.1224 105.62 63.0276 105.482L47.1894 82.5593C47.0567 82.3517 47.1136 82.0922 47.3409 81.9711C47.5683 81.85 47.8524 81.9019 48.004 82.1095L63.8423 105.032C63.9749 105.239 63.918 105.499 63.6907 105.62C63.6149 105.672 63.5202 105.689 63.4444 105.689H63.4255Z" fill="white"/>
<path d="M70.2271 105.257C66.5517 106.001 60.4892 106.71 53.5741 104.945C51.2817 104.357 49.2735 103.596 47.5874 102.817C47.7769 100.914 47.9852 99.0288 48.1747 97.1259C53.1952 96.5204 58.2347 95.9322 63.2552 95.3267C64.0698 95.6727 69.6208 98.1638 70.3028 102.887C70.3976 103.544 70.4165 104.34 70.2271 105.257Z" fill="#EA9950"/>
<path d="M153.567 107.678V108.855C153.567 110.394 152.203 111.605 150.555 111.605H4.67624C3.028 111.605 1.66394 110.377 1.66394 108.855V107.678C1.66394 106.139 3.028 104.928 4.67624 104.928H150.555C152.203 104.928 153.567 106.156 153.567 107.678Z" fill="white"/>
<path d="M149.93 112.592H4.05107C2.25127 112.592 0.79248 111.26 0.79248 109.616V108.44C0.79248 106.796 2.25127 105.464 4.05107 105.464H149.93C151.73 105.464 153.188 106.796 153.188 108.44V109.616C153.188 111.26 151.73 112.592 149.93 112.592ZM4.05107 105.914C2.51651 105.914 1.26611 107.056 1.26611 108.457V109.633C1.26611 111.035 2.51651 112.176 4.05107 112.176H149.93C151.464 112.176 152.715 111.035 152.715 109.633V108.457C152.715 107.056 151.464 105.914 149.93 105.914H4.05107Z" fill="#22130C"/>
<path d="M54.8624 109.27C49.9745 107.817 45.1055 106.381 40.2177 104.928H80.8175C72.1594 106.381 63.5014 107.817 54.8624 109.27Z" fill="#22130C"/>
<path d="M70.5489 104.945C70.4353 104.945 70.3405 104.876 70.3216 104.772L69.6964 101.485C69.6774 101.364 69.7532 101.26 69.8858 101.243C70.0374 101.226 70.1321 101.295 70.1511 101.416L70.7763 104.703C70.7952 104.824 70.7194 104.928 70.5868 104.945C70.5868 104.945 70.5679 104.945 70.5489 104.945Z" fill="#22130C"/>
<path d="M65.7369 100.551C65.7369 100.551 65.6611 100.551 65.6421 100.534L63.1982 99.4786C63.0845 99.4267 63.0277 99.3056 63.0846 99.1845C63.1414 99.0807 63.2929 99.0288 63.4066 99.0807L65.8505 100.136C65.9642 100.188 66.0211 100.309 65.9642 100.43C65.9264 100.499 65.8316 100.551 65.7558 100.551H65.7369Z" fill="#22130C"/>
<path d="M69.0712 105.153C69.0712 105.153 68.9197 105.118 68.8818 105.049L65.7368 100.811C65.6611 100.707 65.699 100.586 65.7937 100.517C65.9074 100.447 66.04 100.482 66.1157 100.568L69.2607 104.807C69.3365 104.911 69.2986 105.032 69.2038 105.101C69.1659 105.118 69.1091 105.136 69.0712 105.136V105.153Z" fill="#22130C"/>
<path d="M107.606 94.7906C107.511 94.7906 107.416 94.7387 107.379 94.6349C107.341 94.5311 107.398 94.3927 107.53 94.3581L109.974 93.5969C110.088 93.5623 110.239 93.6143 110.277 93.7353C110.315 93.8391 110.258 93.9776 110.126 94.0122L107.682 94.7733C107.682 94.7733 107.625 94.7733 107.606 94.7733V94.7906Z" fill="#22130C"/>
<path d="M24.7961 93.3025L22.1248 93.0084C21.9922 93.0084 21.8975 92.8873 21.9165 92.7662C21.9165 92.6451 22.0491 92.5586 22.1817 92.5759L24.8151 92.87C24.9477 92.87 25.0425 92.9911 25.0235 93.1122C25.0235 93.216 24.9098 93.3025 24.7961 93.3025Z" fill="#22130C"/>
<path d="M123.691 38.4627C125.415 45.3134 123.122 54.5342 117.571 56.2814C111.016 58.3401 100.937 49.621 98.3418 40.3137C96.5988 34.0339 97.5461 24.865 102.718 22.7544C109.046 20.1768 121.152 28.3596 123.691 38.4627Z" fill="#5BA890"/>
<path d="M142.143 46.5762C142.143 58.0114 136.63 67.2841 129.81 67.2841C122.99 67.2841 117.477 58.0114 117.477 46.5762C117.477 35.1411 122.99 25.8684 129.81 25.8684C136.63 25.8684 142.143 35.1411 142.143 46.5762Z" fill="#5BA890"/>
<path d="M118.272 70.6401C115.999 74.4288 104.537 72.0933 102.983 71.7646C101.79 71.5051 88.6607 68.7025 88.4902 63.1666C88.3576 58.859 96.1062 54.1707 102.983 54.5686C113.062 55.1395 120.678 66.6266 118.272 70.6401Z" fill="#5BA890"/>
<path d="M124.998 82.5596C124.884 82.5596 124.789 82.4904 124.77 82.3866C122.781 74.3595 120.413 66.3151 117.704 58.4783C113.498 46.3512 108.402 34.3624 102.51 22.8235C102.453 22.7197 102.51 22.5813 102.623 22.5294C102.737 22.4775 102.889 22.5294 102.945 22.6332C108.837 34.1721 113.972 46.1955 118.159 58.34C120.868 66.1768 123.255 74.2211 125.244 82.2828C125.263 82.4039 125.187 82.5077 125.074 82.5423C125.074 82.5423 125.036 82.5423 125.017 82.5423L124.998 82.5596Z" fill="#22130C"/>
<path d="M128.673 84.6182C128.522 84.6182 128.427 84.5144 128.446 84.3933C128.976 75.3801 129.412 66.2285 129.753 57.2153C130.151 46.8355 130.416 36.3172 130.568 25.9373C130.568 25.8162 130.7 25.7297 130.814 25.7297C130.947 25.7297 131.041 25.8335 131.041 25.9546C130.89 36.3345 130.606 46.8701 130.227 57.2499C129.886 66.2631 129.45 75.4147 128.92 84.4279C128.92 84.549 128.806 84.6355 128.692 84.6355L128.673 84.6182Z" fill="#22130C"/>
<path d="M121.853 83.6676C121.701 83.6676 121.607 83.5638 121.626 83.4427C121.815 80.7959 121.625 75.6232 118.083 70.762C113.706 64.759 107.075 62.9771 104.234 62.2332C99.6489 61.0222 94.7042 60.8838 89.93 61.8699C89.8163 61.9045 89.6837 61.818 89.6458 61.7142C89.6269 61.5931 89.7027 61.4893 89.8163 61.4547C94.6663 60.4513 99.7058 60.5724 104.366 61.818C107.246 62.5792 114.01 64.3957 118.481 70.5198C122.099 75.4848 122.308 80.7613 122.099 83.46C122.099 83.5811 121.985 83.6676 121.872 83.6676H121.853Z" fill="#22130C"/>
<path d="M118.765 55.9703C118.651 55.9703 118.556 55.9011 118.537 55.8146C117.514 52.2854 117.098 48.6352 117.287 45.0022C117.533 40.5908 118.67 36.2831 120.678 32.2177C120.735 32.1139 120.868 32.062 121 32.1139C121.114 32.1658 121.171 32.2869 121.114 32.3907C119.144 36.4042 118.007 40.6427 117.78 45.0195C117.59 48.6179 118.007 52.2162 119.011 55.7108C119.049 55.8319 118.973 55.953 118.841 55.9703C118.822 55.9703 118.803 55.9703 118.784 55.9703H118.765Z" fill="#22130C"/>
<path d="M112.835 79.3767H138.544V94.0815C138.544 100.067 133.22 104.928 126.665 104.928H124.695C118.14 104.928 112.816 100.067 112.816 94.0815V79.3767H112.835Z" fill="#22130C"/>
</svg>
